<?xml version="1.0" encoding="UTF-8" standalone="no"?>
<!-- Created with Inkscape (http://www.inkscape.org/) -->

<svg
   xmlns:dc="http://purl.org/dc/elements/1.1/"
   xmlns:cc="http://creativecommons.org/ns#"
   xmlns:rdf="http://www.w3.org/1999/02/22-rdf-syntax-ns#"
   xmlns:svg="http://www.w3.org/2000/svg"
   xmlns="http://www.w3.org/2000/svg"
   xmlns:sodipodi="http://sodipodi.sourceforge.net/DTD/sodipodi-0.dtd"
   xmlns:inkscape="http://www.inkscape.org/namespaces/inkscape"
   width="2.1166699mm"
   height="2.1166601mm"
   viewBox="0 0 2.1166699 2.1166601"
   version="1.1"
   id="svg2039"
   inkscape:version="0.92.4 (5da689c313, 2019-01-14)"
   sodipodi:docname="negative.svg">
  <defs
     id="defs2033" />
  <sodipodi:namedview
     id="base"
     pagecolor="#ffffff"
     bordercolor="#666666"
     borderopacity="1.0"
     inkscape:pageopacity="0.0"
     inkscape:pageshadow="2"
     inkscape:zoom="106.00033"
     inkscape:cx="4.0000063"
     inkscape:cy="3.9999878"
     inkscape:document-units="mm"
     inkscape:current-layer="layer1"
     showgrid="false"
     inkscape:window-width="1920"
     inkscape:window-height="1017"
     inkscape:window-x="-8"
     inkscape:window-y="-8"
     inkscape:window-maximized="1" />
  <metadata
     id="metadata2036">
    <rdf:RDF>
      <cc:Work
         rdf:about="">
        <dc:format>image/svg+xml</dc:format>
        <dc:type
           rdf:resource="http://purl.org/dc/dcmitype/StillImage" />
        <dc:title></dc:title>
      </cc:Work>
    </rdf:RDF>
  </metadata>
  <g
     inkscape:label="Ebene 1"
     inkscape:groupmode="layer"
     id="layer1"
     transform="translate(-108.78944,-216.56262)">
    <circle
       style="fill:#ff9e68;stroke-width:0.26458332"
       cx="109.84778"
       cy="217.62096"
       r="0.92604166"
       id="circle8" />
    <path
       inkscape:connector-curvature="0"
       style="fill:#40455a;stroke-width:0.26458332"
       d="m 109.84778,218.67928 c -0.58209,0 -1.05834,-0.47625 -1.05834,-1.05833 0,-0.58208 0.47625,-1.05833 1.05834,-1.05833 0.58208,0 1.05833,0.47625 1.05833,1.05833 0,0.58208 -0.47625,1.05833 -1.05833,1.05833 z m 0,-1.85208 c -0.4498,0 -0.79375,0.34396 -0.79375,0.79375 0,0.44979 0.34395,0.79375 0.79375,0.79375 0.44979,0 0.79375,-0.34396 0.79375,-0.79375 0,-0.44979 -0.34396,-0.79375 -0.79375,-0.79375 z"
       id="path26" />
    <path
       inkscape:connector-curvature="0"
       style="fill:#40455a;stroke-width:0.26458332"
       d="m 110.13882,218.15012 c -0.0265,0 -0.0794,0 -0.10584,-0.0265 -0.10583,-0.10583 -0.26458,-0.10583 -0.37041,0 -0.0529,0.0529 -0.13229,0.0529 -0.18521,0 -0.0529,-0.0529 -0.0529,-0.13229 0,-0.18521 0.18521,-0.18521 0.55562,-0.18521 0.74083,0 0.0529,0.0529 0.0529,0.13229 0,0.18521 -0.0265,0.0265 -0.0529,0.0265 -0.0794,0.0265 z"
       id="path28" />
    <circle
       style="fill:#40455a;stroke-width:0.26458332"
       cx="109.53027"
       cy="217.35637"
       r="0.13229166"
       id="circle30" />
    <circle
       style="fill:#40455a;stroke-width:0.26458332"
       cx="110.19173"
       cy="217.35637"
       r="0.13229166"
       id="circle32" />
  </g>
</svg>
