<?xml version="1.0" encoding="UTF-8" standalone="no"?>
<!-- Created with Inkscape (http://www.inkscape.org/) -->

<svg
   xmlns:dc="http://purl.org/dc/elements/1.1/"
   xmlns:cc="http://creativecommons.org/ns#"
   xmlns:rdf="http://www.w3.org/1999/02/22-rdf-syntax-ns#"
   xmlns:svg="http://www.w3.org/2000/svg"
   xmlns="http://www.w3.org/2000/svg"
   xmlns:sodipodi="http://sodipodi.sourceforge.net/DTD/sodipodi-0.dtd"
   xmlns:inkscape="http://www.inkscape.org/namespaces/inkscape"
   width="2.116667mm"
   height="2.1166699mm"
   viewBox="0 0 2.116667 2.1166699"
   version="1.1"
   id="svg1461"
   inkscape:version="0.92.4 (5da689c313, 2019-01-14)"
   sodipodi:docname="neutral.svg">
  <defs
     id="defs1455" />
  <sodipodi:namedview
     id="base"
     pagecolor="#ffffff"
     bordercolor="#666666"
     borderopacity="1.0"
     inkscape:pageopacity="0.0"
     inkscape:pageshadow="2"
     inkscape:zoom="63.356767"
     inkscape:cx="3.8569364"
     inkscape:cy="4.0516849"
     inkscape:document-units="mm"
     inkscape:current-layer="layer1"
     showgrid="false"
     inkscape:window-width="1054"
     inkscape:window-height="708"
     inkscape:window-x="270"
     inkscape:window-y="69"
     inkscape:window-maximized="0" />
  <metadata
     id="metadata1458">
    <rdf:RDF>
      <cc:Work
         rdf:about="">
        <dc:format>image/svg+xml</dc:format>
        <dc:type
           rdf:resource="http://purl.org/dc/dcmitype/StillImage" />
        <dc:title></dc:title>
      </cc:Work>
    </rdf:RDF>
  </metadata>
  <g
     inkscape:label="Ebene 1"
     inkscape:groupmode="layer"
     id="layer1"
     transform="translate(-90.882384,-220.57166)">
    <circle
       style="fill:#ffda87;stroke-width:0.26458332;fill-opacity:1"
       cx="91.94072"
       cy="221.62999"
       r="0.92604166"
       id="circle6" />
    <path
       inkscape:connector-curvature="0"
       style="fill:#40455a;stroke-width:0.26458332"
       d="m 91.940717,222.68833 c -0.582083,0 -1.058333,-0.47625 -1.058333,-1.05834 0,-0.58208 0.47625,-1.05833 1.058333,-1.05833 0.582084,0 1.058334,0.47625 1.058334,1.05833 0,0.58209 -0.47625,1.05834 -1.058334,1.05834 z m 0,-1.85209 c -0.449791,0 -0.79375,0.34396 -0.79375,0.79375 0,0.44979 0.343959,0.79375 0.79375,0.79375 0.449792,0 0.79375,-0.34396 0.79375,-0.79375 0,-0.44979 -0.343958,-0.79375 -0.79375,-0.79375 z"
       id="path18" />
    <path
       inkscape:connector-curvature="0"
       style="fill:#40455a;stroke-width:0.26458332"
       d="m 92.231759,222.02687 h -0.582083 c -0.07937,0 -0.132292,-0.0529 -0.132292,-0.13229 0,-0.0794 0.05292,-0.1323 0.132292,-0.1323 h 0.555625 c 0.07937,0 0.132291,0.0529 0.132291,0.1323 0,0.0794 -0.05292,0.13229 -0.105833,0.13229 z"
       id="path20" />
    <circle
       style="fill:#40455a;stroke-width:0.26458332"
       cx="91.623215"
       cy="221.36542"
       r="0.13229166"
       id="circle22" />
    <circle
       style="fill:#40455a;stroke-width:0.26458332"
       cx="92.284676"
       cy="221.36542"
       r="0.13229166"
       id="circle24" />
  </g>
</svg>
