<?xml version="1.0" encoding="UTF-8" standalone="no"?>
<!-- Created with Inkscape (http://www.inkscape.org/) -->

<svg
   xmlns:dc="http://purl.org/dc/elements/1.1/"
   xmlns:cc="http://creativecommons.org/ns#"
   xmlns:rdf="http://www.w3.org/1999/02/22-rdf-syntax-ns#"
   xmlns:svg="http://www.w3.org/2000/svg"
   xmlns="http://www.w3.org/2000/svg"
   xmlns:sodipodi="http://sodipodi.sourceforge.net/DTD/sodipodi-0.dtd"
   xmlns:inkscape="http://www.inkscape.org/namespaces/inkscape"
   width="2.1166601mm"
   height="2.1166699mm"
   viewBox="0 0 2.1166601 2.1166699"
   version="1.1"
   id="svg869"
   inkscape:version="0.92.4 (5da689c313, 2019-01-14)"
   sodipodi:docname="positive.svg">
  <defs
     id="defs863" />
  <sodipodi:namedview
     id="base"
     pagecolor="#ffffff"
     bordercolor="#666666"
     borderopacity="1.0"
     inkscape:pageopacity="0.0"
     inkscape:pageshadow="2"
     inkscape:zoom="63.356767"
     inkscape:cx="3.9756926"
     inkscape:cy="4.7475769"
     inkscape:document-units="mm"
     inkscape:current-layer="layer1"
     showgrid="false"
     inkscape:window-width="1043"
     inkscape:window-height="673"
     inkscape:window-x="41"
     inkscape:window-y="84"
     inkscape:window-maximized="0" />
  <metadata
     id="metadata866">
    <rdf:RDF>
      <cc:Work
         rdf:about="">
        <dc:format>image/svg+xml</dc:format>
        <dc:type
           rdf:resource="http://purl.org/dc/dcmitype/StillImage" />
        <dc:title></dc:title>
      </cc:Work>
    </rdf:RDF>
  </metadata>
  <g
     inkscape:label="Ebene 1"
     inkscape:groupmode="layer"
     id="layer1"
     transform="translate(-108.93274,-150.42083)">
    <circle
       style="fill:#a3d86b;stroke-width:0.26458332;fill-opacity:1"
       cx="109.99107"
       cy="151.47917"
       r="0.92604166"
       id="circle4" />
    <path
       inkscape:connector-curvature="0"
       style="fill:#40455a;stroke-width:0.26458332"
       d="m 109.99107,152.5375 c -0.58208,0 -1.05833,-0.47625 -1.05833,-1.05833 0,-0.58209 0.47625,-1.05834 1.05833,-1.05834 0.58208,0 1.05833,0.47625 1.05833,1.05834 0,0.58208 -0.47625,1.05833 -1.05833,1.05833 z m 0,-1.85208 c -0.44979,0 -0.79375,0.34395 -0.79375,0.79375 0,0.44979 0.34396,0.79375 0.79375,0.79375 0.44979,0 0.79375,-0.34396 0.79375,-0.79375 0,-0.4498 -0.34396,-0.79375 -0.79375,-0.79375 z"
       id="path10" />
    <path
       inkscape:connector-curvature="0"
       style="fill:#40455a;stroke-width:0.26458332"
       d="m 109.99107,152.00833 c -0.13229,0 -0.26458,-0.0529 -0.37042,-0.15875 -0.0529,-0.0529 -0.0529,-0.13229 0,-0.18521 0.0529,-0.0529 0.1323,-0.0529 0.18521,0 0.10584,0.10584 0.26459,0.10584 0.37042,0 0.0529,-0.0529 0.13229,-0.0529 0.18521,0 0.0529,0.0529 0.0529,0.1323 0,0.18521 -0.10584,0.10584 -0.23813,0.15875 -0.37042,0.15875 z"
       id="path12" />
    <circle
       style="fill:#40455a;stroke-width:0.26458332"
       cx="109.67357"
       cy="151.21458"
       r="0.13229166"
       id="circle14" />
    <circle
       style="fill:#40455a;stroke-width:0.26458332"
       cx="110.33503"
       cy="151.21458"
       r="0.13229166"
       id="circle16" />
  </g>
</svg>
